<mxfile host="Electron" modified="2024-05-04T15:36:07.756Z" agent="Mozilla/5.0 (Windows NT 10.0; Win64; x64) AppleWebKit/537.36 (KHTML, like Gecko) draw.io/23.1.5 Chrome/120.0.6099.109 Electron/28.1.0 Safari/537.36" etag="5ssTBv9Uc6gN8kMMqc7W" version="23.1.5" type="device">
  <diagram name="페이지-1" id="mJYvhLLfE5og2Ke-VDfa">
    <mxGraphModel dx="731" dy="1065" grid="1" gridSize="10" guides="1" tooltips="1" connect="1" arrows="1" fold="1" page="1" pageScale="1" pageWidth="827" pageHeight="1169" math="0" shadow="0">
      <root>
        <mxCell id="0" />
        <mxCell id="1" parent="0" />
        <mxCell id="WlOF9w0PN2_pU0MgWz-r-1" value="" style="swimlane;startSize=0;" vertex="1" parent="1">
          <mxGeometry x="870" y="20" width="278" height="370" as="geometry" />
        </mxCell>
        <mxCell id="WlOF9w0PN2_pU0MgWz-r-2" value="" style="ellipse;whiteSpace=wrap;html=1;" vertex="1" parent="WlOF9w0PN2_pU0MgWz-r-1">
          <mxGeometry x="24" y="20" width="120" height="80" as="geometry" />
        </mxCell>
        <mxCell id="WlOF9w0PN2_pU0MgWz-r-3" value=": 변수 선언" style="text;html=1;align=center;verticalAlign=middle;whiteSpace=wrap;rounded=0;" vertex="1" parent="WlOF9w0PN2_pU0MgWz-r-1">
          <mxGeometry x="170" y="50" width="60" height="30" as="geometry" />
        </mxCell>
        <mxCell id="WlOF9w0PN2_pU0MgWz-r-4" value="" style="rounded=0;whiteSpace=wrap;html=1;" vertex="1" parent="WlOF9w0PN2_pU0MgWz-r-1">
          <mxGeometry x="24" y="110" width="120" height="60" as="geometry" />
        </mxCell>
        <mxCell id="WlOF9w0PN2_pU0MgWz-r-5" value=": 행동 코드" style="text;html=1;align=center;verticalAlign=middle;whiteSpace=wrap;rounded=0;" vertex="1" parent="WlOF9w0PN2_pU0MgWz-r-1">
          <mxGeometry x="170" y="120" width="60" height="30" as="geometry" />
        </mxCell>
        <mxCell id="WlOF9w0PN2_pU0MgWz-r-6" value="~ 동안" style="swimlane;whiteSpace=wrap;html=1;" vertex="1" parent="WlOF9w0PN2_pU0MgWz-r-1">
          <mxGeometry x="24" y="180" width="120" height="70" as="geometry" />
        </mxCell>
        <mxCell id="WlOF9w0PN2_pU0MgWz-r-7" value=": 반복 구문" style="text;html=1;align=center;verticalAlign=middle;whiteSpace=wrap;rounded=0;" vertex="1" parent="WlOF9w0PN2_pU0MgWz-r-1">
          <mxGeometry x="170" y="200" width="60" height="30" as="geometry" />
        </mxCell>
        <mxCell id="WlOF9w0PN2_pU0MgWz-r-8" value="" style="rhombus;whiteSpace=wrap;html=1;" vertex="1" parent="WlOF9w0PN2_pU0MgWz-r-1">
          <mxGeometry x="24" y="260" width="120" height="80" as="geometry" />
        </mxCell>
        <mxCell id="WlOF9w0PN2_pU0MgWz-r-9" value=": if문" style="text;html=1;align=center;verticalAlign=middle;whiteSpace=wrap;rounded=0;" vertex="1" parent="WlOF9w0PN2_pU0MgWz-r-1">
          <mxGeometry x="156" y="285" width="60" height="30" as="geometry" />
        </mxCell>
        <mxCell id="WlOF9w0PN2_pU0MgWz-r-13" value="int 배열 dp[25]" style="ellipse;whiteSpace=wrap;html=1;" vertex="1" parent="1">
          <mxGeometry x="100" y="40" width="150" height="70" as="geometry" />
        </mxCell>
        <mxCell id="WlOF9w0PN2_pU0MgWz-r-24" value="" style="group" vertex="1" connectable="0" parent="1">
          <mxGeometry x="60" y="160" width="620.14" height="470" as="geometry" />
        </mxCell>
        <mxCell id="WlOF9w0PN2_pU0MgWz-r-25" value="String s속 문자 c들로 반복" style="swimlane;whiteSpace=wrap;html=1;" vertex="1" parent="WlOF9w0PN2_pU0MgWz-r-24">
          <mxGeometry width="620.14" height="440" as="geometry" />
        </mxCell>
        <mxCell id="WlOF9w0PN2_pU0MgWz-r-28" value="" style="group" vertex="1" connectable="0" parent="WlOF9w0PN2_pU0MgWz-r-25">
          <mxGeometry x="5.09" y="104.44444444444444" width="609.96" height="174.07407407407408" as="geometry" />
        </mxCell>
        <mxCell id="WlOF9w0PN2_pU0MgWz-r-29" value="integer idx = max(char - &#39;a&#39; - k, 0) 부터 min(char - &#39;a&#39; + k&amp;nbsp;&lt;br&gt;, 25) 까지 반복&amp;nbsp;" style="swimlane;whiteSpace=wrap;html=1;startSize=40;" vertex="1" parent="WlOF9w0PN2_pU0MgWz-r-28">
          <mxGeometry width="420" height="147.96296296296296" as="geometry" />
        </mxCell>
        <mxCell id="WlOF9w0PN2_pU0MgWz-r-32" value="maxVal = max(maxVal, dp[idx] + 1)" style="rounded=0;whiteSpace=wrap;html=1;" vertex="1" parent="WlOF9w0PN2_pU0MgWz-r-29">
          <mxGeometry x="33.07705802120432" y="69.63253086419752" width="353.8406464564076" height="34.81481481481482" as="geometry" />
        </mxCell>
        <mxCell id="WlOF9w0PN2_pU0MgWz-r-30" value="&lt;h1&gt;예외처리&lt;/h1&gt;&lt;p&gt;1. char - &#39;a&#39; - k 부터 시작해서&amp;nbsp;&lt;span style=&quot;background-color: initial;&quot;&gt;char - &#39;a&#39; + k까지 그러나 음수와 25를 넘는 수는 허용해서는 안됨&amp;nbsp;&lt;br&gt;이걸 반영&lt;/span&gt;&lt;/p&gt;" style="text;html=1;spacing=5;spacingTop=-20;whiteSpace=wrap;overflow=hidden;rounded=0;" vertex="1" parent="WlOF9w0PN2_pU0MgWz-r-28">
          <mxGeometry x="429.8184905660378" y="30.273752012882447" width="180.14150943396228" height="104.44444444444444" as="geometry" />
        </mxCell>
        <mxCell id="WlOF9w0PN2_pU0MgWz-r-31" value="int maxVal = 1" style="rounded=0;whiteSpace=wrap;html=1;shape=ellipse;perimeter=ellipsePerimeter;" vertex="1" parent="WlOF9w0PN2_pU0MgWz-r-25">
          <mxGeometry x="20" y="34.81481481481482" width="120" height="52.22222222222222" as="geometry" />
        </mxCell>
        <mxCell id="WlOF9w0PN2_pU0MgWz-r-33" value="dp[c- &#39;a&#39;] = maxVal" style="rounded=0;whiteSpace=wrap;html=1;" vertex="1" parent="WlOF9w0PN2_pU0MgWz-r-25">
          <mxGeometry x="20" y="295.9259259259259" width="180" height="52.22222222222222" as="geometry" />
        </mxCell>
        <mxCell id="WlOF9w0PN2_pU0MgWz-r-26" value="&lt;h1&gt;예외처리&lt;/h1&gt;&lt;p&gt;1. for문이라 없음&lt;/p&gt;" style="text;html=1;spacing=5;spacingTop=-20;whiteSpace=wrap;overflow=hidden;rounded=0;" vertex="1" parent="1">
          <mxGeometry x="700.0005660377358" y="160" width="206.13207547169813" height="120" as="geometry" />
        </mxCell>
        <mxCell id="WlOF9w0PN2_pU0MgWz-r-34" value="" style="group" vertex="1" connectable="0" parent="1">
          <mxGeometry x="60" y="650" width="424" height="200" as="geometry" />
        </mxCell>
        <mxCell id="WlOF9w0PN2_pU0MgWz-r-35" value="dp의 25개 반복" style="swimlane;whiteSpace=wrap;html=1;" vertex="1" parent="WlOF9w0PN2_pU0MgWz-r-34">
          <mxGeometry width="200" height="200" as="geometry" />
        </mxCell>
        <mxCell id="WlOF9w0PN2_pU0MgWz-r-38" value="ans = max(ans, dp[i])" style="rounded=0;whiteSpace=wrap;html=1;" vertex="1" parent="WlOF9w0PN2_pU0MgWz-r-35">
          <mxGeometry x="30" y="50" width="120" height="60" as="geometry" />
        </mxCell>
        <mxCell id="WlOF9w0PN2_pU0MgWz-r-36" value="&lt;h1&gt;예외처리&lt;/h1&gt;&lt;p&gt;1. 없음&lt;/p&gt;" style="text;html=1;spacing=5;spacingTop=-20;whiteSpace=wrap;overflow=hidden;rounded=0;" vertex="1" parent="WlOF9w0PN2_pU0MgWz-r-34">
          <mxGeometry x="234" y="30" width="190" height="120" as="geometry" />
        </mxCell>
        <mxCell id="WlOF9w0PN2_pU0MgWz-r-37" value="int ans = 0" style="ellipse;whiteSpace=wrap;html=1;" vertex="1" parent="1">
          <mxGeometry x="280" y="40" width="160" height="70" as="geometry" />
        </mxCell>
      </root>
    </mxGraphModel>
  </diagram>
</mxfile>
